<svg width="42" height="42" viewBox="0 0 42 42" fill="none" xmlns="http://www.w3.org/2000/svg">
<path d="M42 21C42 32.598 32.598 42 21 42C9.40202 42 0 32.598 0 21C0 9.40202 9.40202 0 21 0C32.598 0 42 9.40202 42 21Z" fill="#4880EE"/>
<path d="M11.9 21C11.9 20.6134 12.2134 20.3 12.6 20.3H29.4C29.7866 20.3 30.1 20.6134 30.1 21V22.4C30.1 22.7866 29.7866 23.1 29.4 23.1H12.6C12.2134 23.1 11.9 22.7866 11.9 22.4V21Z" fill="white"/>
<path d="M21.7 12.25C22.0866 12.25 22.4 12.5634 22.4 12.95V21.35V29.75C22.4 30.1366 22.0866 30.45 21.7 30.45H20.3C19.9134 30.45 19.6 30.1366 19.6 29.75V21.35V12.95C19.6 12.5634 19.9134 12.25 20.3 12.25H21.7Z" fill="white"/>
</svg>
