<svg width="24" height="14" viewBox="0 0 24 14" fill="none" xmlns="http://www.w3.org/2000/svg">
<path fill-rule="evenodd" clip-rule="evenodd" d="M1.41912 7.04594C2.16654 8.22149 5.60616 12.8275 11.9338 12.8275C18.2615 12.8275 21.7016 8.22149 22.449 7.04594C21.7016 5.87085 18.2615 1.26485 11.9338 1.26485C5.60616 1.26485 2.16654 5.87085 1.41912 7.04594ZM11.9339 13.9999C3.86223 13.9999 0.224289 7.54407 0.0743072 7.27175C-0.0248504 7.09246 -0.0248504 6.91001 0.0743072 6.73072C0.224289 6.45839 3.86223 -0.00012207 11.9339 -0.00012207C20.0055 -0.00012207 23.6434 6.45839 23.7939 6.73072C23.8926 6.91001 23.8926 7.09246 23.7939 7.27175C23.6434 7.58743 20.0055 13.9999 11.9339 13.9999Z" fill="#202244"/>
<path fill-rule="evenodd" clip-rule="evenodd" d="M11.9339 2.52996C9.19332 2.52996 6.95106 4.56221 6.95106 7.04608C6.95106 9.52995 9.19332 11.5622 11.9339 11.5622C14.6744 11.5622 16.9167 9.52995 16.9167 7.04608C16.9167 4.56221 14.6744 2.52996 11.9339 2.52996ZM11.9339 12.7373C8.4459 12.7373 5.65454 10.1613 5.65454 7.04608C5.65454 3.93086 8.49673 1.35486 11.9339 1.35486C15.371 1.35486 18.2137 3.93086 18.2137 7.04608C18.2137 10.1613 15.4218 12.7373 11.9339 12.7373Z" fill="#202244"/>
<path fill-rule="evenodd" clip-rule="evenodd" d="M11.9339 10.2072C10.0399 10.2072 8.44592 8.80631 8.44592 7.04593C8.44592 6.7307 8.74589 6.45838 9.09418 6.45838C9.44248 6.45838 9.74245 6.7307 9.74245 7.04593C9.74245 8.12889 10.6882 8.98877 11.8831 8.98877C13.0809 8.98877 14.0262 8.12889 14.0262 7.04593C14.0262 5.96341 13.0809 5.10354 11.8831 5.10354C11.5348 5.10354 11.2373 4.83438 11.2373 4.51599C11.2373 4.20031 11.5348 3.93115 11.8831 3.93115C13.777 3.93115 15.371 5.32935 15.371 7.09244C15.371 8.85238 13.8283 10.2072 11.9339 10.2072Z" fill="#202244"/>
</svg>
