<svg width="18" height="20" viewBox="0 0 18 20" fill="none" xmlns="http://www.w3.org/2000/svg">
<path fill-rule="evenodd" clip-rule="evenodd" d="M8.85123 1.53133C7.73046 1.52733 6.65843 1.93033 5.86658 2.64833C5.07474 3.36733 4.62953 4.34433 4.62953 5.35933C4.6251 6.91033 5.65062 8.31233 7.22878 8.91033C8.80361 9.50433 10.621 9.18033 11.8315 8.08233C13.0386 6.98833 13.4019 5.33633 12.7495 3.90233C12.0961 2.46933 10.5556 1.53133 8.85123 1.53133ZM6.60637 0.40633C8.80804 -0.42167 11.3475 0.0393305 13.0297 1.57433C14.7175 3.10533 15.2192 5.41433 14.3022 7.41433C13.3897 9.41833 11.2345 10.7233 8.85123 10.7193C5.59857 10.7113 2.96388 8.31633 2.96388 5.35933L2.97274 5.12933C3.06799 3.05233 4.48223 1.20733 6.60637 0.40633ZM6.51556 12.7663C8.10701 12.6453 9.70842 12.6453 11.2999 12.7663C12.1692 12.8213 13.0342 12.9343 13.8825 13.1103C15.7209 13.4463 16.9236 14.1063 17.4253 15.0743C17.8273 15.8753 17.8151 16.8013 17.3954 17.5983C16.8849 18.5673 15.6821 19.2273 13.8127 19.5713C12.9699 19.7423 12.1083 19.8523 11.2389 19.9033C10.2832 20.0003 9.47031 20.0003 8.7128 20.0003H8.41488C7.98629 19.9573 7.6618 19.6293 7.6618 19.2393C7.6618 18.8483 7.98629 18.5203 8.41488 18.4773H9.07605C9.73832 18.4693 10.4083 18.4423 11.075 18.3913C11.8625 18.3443 12.6454 18.2423 13.4196 18.0903C14.743 17.8283 15.578 17.4493 15.8383 16.9463C16.041 16.5633 16.041 16.1173 15.8383 15.7353C15.578 15.2233 14.743 14.8283 13.445 14.5903C12.6621 14.4303 11.8669 14.3243 11.0662 14.2813C9.56998 14.1563 8.06382 14.1563 6.56761 14.2813C5.77577 14.3283 4.98835 14.4263 4.21423 14.5783C2.88525 14.8443 2.06351 15.2233 1.7955 15.7233C1.69582 15.9143 1.6482 16.1213 1.6482 16.3323C1.6482 16.5433 1.69582 16.7543 1.7955 16.9463C2.25399 17.5203 2.95502 17.8913 3.72915 17.9773L3.84211 18.0043C4.09683 18.0823 4.29618 18.2703 4.3737 18.5123C4.46452 18.7813 4.37813 19.0783 4.15331 19.2783C3.9285 19.4773 3.59958 19.5433 3.30499 19.4533C2.05465 19.2703 0.960459 18.5943 0.311478 17.6063C-0.103826 16.8093 -0.103826 15.8793 0.311478 15.0823C0.826455 14.0863 2.02474 13.4463 3.87645 13.1023C4.74581 12.9303 5.62847 12.8213 6.51556 12.7663Z" fill="#202244"/>
</svg>
