<svg width="22" height="19" viewBox="0 0 22 19" fill="none" xmlns="http://www.w3.org/2000/svg">
<path d="M16.7497 0.76832C16.2736 0.48851 15.6607 0.647679 15.3809 1.12384C15.1011 1.59999 15.2603 2.21282 15.7364 2.49263L16.7497 0.76832ZM20.3185 11.628L21.2685 11.9402L21.2685 11.9402L20.3185 11.628ZM1.40826 11.628L0.458236 11.9402L0.458239 11.9402L1.40826 11.628ZM5.99035 2.49263C6.4665 2.21282 6.62567 1.59999 6.34586 1.12384C6.06605 0.647679 5.45322 0.48851 4.97706 0.76832L5.99035 2.49263ZM11.8625 1C11.8625 0.447715 11.4148 0 10.8625 0C10.3102 0 9.86249 0.447715 9.86249 1H11.8625ZM9.86249 8.69121C9.86249 9.24349 10.3102 9.69121 10.8625 9.69121C11.4148 9.69121 11.8625 9.24349 11.8625 8.69121H9.86249ZM15.7364 2.49263C19.0294 4.42773 20.4499 8.02495 19.3685 11.3158L21.2685 11.9402C22.6712 7.67188 20.7758 3.13423 16.7497 0.76832L15.7364 2.49263ZM19.3685 11.3158C18.2782 14.6336 14.8542 17 10.8634 17V19C15.6049 19 19.8748 16.1815 21.2685 11.9402L19.3685 11.3158ZM10.8634 17C6.87255 17 3.44856 14.6336 2.35827 11.3158L0.458239 11.9402C1.85203 16.1815 6.12188 19 10.8634 19V17ZM2.35828 11.3158C1.27684 8.02495 2.69738 4.42773 5.99035 2.49263L4.97706 0.76832C0.950967 3.13423 -0.944401 7.67188 0.458236 11.9402L2.35828 11.3158ZM9.86249 1V8.69121H11.8625V1H9.86249Z" fill="#202244"/>
</svg>
